<svg width="1148" height="607" viewBox="0 0 1148 607" fill="none" xmlns="http://www.w3.org/2000/svg">
<path d="M222.124 54.2061H331.558V554.885H257.171V195.827L202.812 554.885H128.425L69.7744 200.833V554.885H1.10997V54.2061H110.544L168.48 409.688L222.124 54.2061ZM553.298 554.885L539.708 464.047H443.149L429.559 554.885H357.318L437.427 54.2061H552.583L632.691 554.885H553.298ZM528.979 396.098L491.071 142.898L453.162 396.098H528.979ZM774.474 54.2061C813.574 54.2061 842.9 64.6965 862.45 85.6773C882 106.658 891.776 137.414 891.776 177.945V243.033C891.776 283.564 882 314.32 862.45 335.301C842.9 356.282 813.574 366.772 774.474 366.772H737.28V554.885H658.602V54.2061H774.474ZM737.28 295.247H774.474C787.348 295.247 796.885 291.671 803.084 284.518C809.76 277.366 813.098 265.206 813.098 248.04V172.938C813.098 155.772 809.76 143.613 803.084 136.46C796.885 129.308 787.348 125.732 774.474 125.732H737.28V295.247ZM1145.66 434.722C1145.66 475.253 1135.64 506.486 1115.62 528.42C1095.59 549.878 1066.5 560.607 1028.36 560.607C990.209 560.607 961.122 549.878 941.095 528.42C921.067 506.486 911.054 475.253 911.054 434.722V174.369C911.054 133.838 921.067 102.843 941.095 81.3857C961.122 59.4513 990.209 48.4841 1028.36 48.4841C1066.5 48.4841 1095.59 59.4513 1115.62 81.3857C1135.64 102.843 1145.66 133.838 1145.66 174.369V223.006H1071.27V169.362C1071.27 136.46 1057.68 120.01 1030.5 120.01C1003.32 120.01 989.732 136.46 989.732 169.362V439.728C989.732 472.153 1003.32 488.366 1030.5 488.366C1057.68 488.366 1071.27 472.153 1071.27 439.728V368.203H1145.66V434.722Z" fill="white"/>
</svg>
